#!OML:ASF F:\VICON\USERDATA\INSTALL\rory3\rory3.ASF
:FULLY-SPECIFIED
:DEGREES
304
root 0.519184 17.6787 -18.798 3.60712 -1.50613 0.798027
lowerback 13.1125 0.620456 1.8985
upperback 0.178844 1.37823 3.60799
thorax -7.23078 0.671393 2.4937
lowerneck -17.7939 -4.72455 -8.44953
upperneck 10.3703 -5.19083 6.00533
head 6.42977 -2.35947 2.73905
rclavicle -1.2921e-014 -2.06736e-014
rhumerus -21.7612 1.07289 -75.0119
rradius 47.1675
rwrist -2.44778
rhand -17.7437 11.6554
rfingers 7.12502
rthumb 8.51766 -18.1529
lclavicle -1.2921e-014 -2.06736e-014
lhumerus -34.8418 1.03933 82.8062
lradius 42.9229
lwrist 4.60827
lhand -21.7561 20.24
lfingers 7.12502
lthumb 4.64428 50.1691
rfemur -18.3972 6.37182 18.6645
rtibia 29.1133
rfoot -22.2802 -11.9131
rtoes -1.85986
lfemur -18.7147 0.842168 -18.4264
ltibia 27.8506
lfoot -25.2667 8.24959
ltoes -8.76405
305
root 0.504122 17.6923 -18.7963 3.5195 -1.00644 0.759334
lowerback 12.8814 0.625408 1.68955
upperback 0.0937853 1.33974 3.493
thorax -7.19162 0.658478 2.49785
lowerneck -17.8233 -4.86787 -8.41144
upperneck 10.7347 -5.41418 6.06033
head 6.56932 -2.46133 2.72428
rclavicle 1.27222e-014 2.06736e-014
rhumerus -22.011 0.926751 -75.0108
rradius 47.1086
rwrist -2.27978
rhand -17.8949 11.8694
rfingers 7.12502
rthumb 8.37175 -17.9447
lclavicle 1.27222e-014 2.06736e-014
lhumerus -34.8305 0.838445 82.6745
lradius 42.8507
lwrist 4.59421
lhand -21.9276 20.4224
lfingers 7.12502
lthumb 4.47872 50.3551
rfemur -17.8587 6.21948 18.7773
rtibia 28.4647
rfoot -22.3743 -12.0224
rtoes -2.63837
lfemur -18.2596 0.346338 -18.3297
ltibia 27.0121
lfoot -25.215 8.82044
ltoes -9.31065
306
root 0.492839 17.7145 -18.7955 3.46519 -0.54607 0.594923
lowerback 12.6579 0.603408 1.57699
upperback -0.00513909 1.29062 3.50311
thorax -7.17242 0.639405 2.58289
lowerneck -17.9747 -4.84956 -8.64341
upperneck 11.0333 -5.36403 6.27195
head 6.69996 -2.42719 2.83457
rclavicle -8.15017e-015 -3.65764e-014
rhumerus -22.322 0.95871 -74.8876
rradius 47.2014
rwrist -2.20217
rhand -17.8091 12.0954
rfingers 7.12502
rthumb 8.45458 -17.7154
lclavicle -8.15017e-015 -3.65764e-014
lhumerus -34.9424 0.852746 82.648
lradius 42.8336
lwrist 4.28155
lhand -21.8856 20.701
lfingers 7.12502
lthumb 4.51923 50.6327
rfemur -17.3784 6.07866 18.999
rtibia 27.8621
rfoot -22.5347 -12.0816
rtoes -2.68835
lfemur -17.7986 -0.108661 -18.111
ltibia 26.2545
lfoot -25.2255 9.12733
ltoes -9.62746
307
root 0.480252 17.7294 -18.7943 3.28863 -0.0339231 0.476304
lowerback 12.4442 0.512375 1.38789
upperback -0.0380578 1.13934 3.55052
thorax -7.08624 0.573736 2.76914
lowerneck -17.6459 -4.73531 -8.9539
upperneck 10.7134 -5.19738 6.58412
head 6.54729 -2.33906 3.01037
rclavicle -5.96354e-015 -3.18055e-015
rhumerus -22.4349 1.20467 -74.7612
rradius 47.1049
rwrist -2.19597
rhand -17.8641 12.3674
rfingers 7.12502
rthumb 8.40147 -17.4455
lclavicle -5.96354e-015 -3.18055e-015
lhumerus -35.2349 1.11989 82.5632
lradius 43.0733
lwrist 3.9227
lhand -21.8027 20.7861
lfingers 7.12502
lthumb 4.59928 50.7161
rfemur -16.7631 5.89062 19.1988
rtibia 27.2908
rfoot -22.6701 -12.209
rtoes -2.37658
lfemur -17.3309 -0.615379 -17.9273
ltibia 25.7316
lfoot -25.2652 9.15242
ltoes -9.58381
308
root 0.469402 17.7451 -18.7874 3.11343 0.469476 0.446828
lowerback 12.0796 0.455822 1.16796
upperback -0.054857 1.01696 3.4939
thorax -6.89569 0.520666 2.85537
lowerneck -17.0372 -4.72851 -9.03458
upperneck 10.3949 -5.24196 6.79274
head 6.35672 -2.35734 3.09359
rclavicle 1.03368e-014 2.22639e-014
rhumerus -22.6416 1.22359 -74.7155
rradius 47.0154
rwrist -2.13859
rhand -17.8293 12.7741
rfingers 7.12502
rthumb 8.43506 -17.0374
lclavicle 1.03368e-014 2.22639e-014
lhumerus -35.4435 1.24117 82.424
lradius 43.1736
lwrist 3.62239
lhand -21.799 20.7702
lfingers 7.12502
lthumb 4.6029 50.7002
rfemur -16.1558 5.56164 19.2904
rtibia 26.7627
rfoot -22.7543 -12.2692
rtoes -1.94031
lfemur -16.9265 -0.993208 -17.88
ltibia 25.3499
lfoot -25.2972 9.12734
ltoes -9.83618
309
root 0.451961 17.7477 -18.8075 3.04126 0.9497 0.292346
lowerback 12.0003 0.453802 0.969813
upperback -0.082347 0.983823 3.47265
thorax -6.88166 0.51123 2.95118
lowerneck -16.8305 -4.83922 -9.05661
upperneck 10.2983 -5.42357 6.94335
head 6.31187 -2.43749 3.12814
rclavicle -4.57205e-015 1.43125e-014
rhumerus -22.7496 1.07084 -74.6625
rradius 47.0478
rwrist -2.26125
rhand -17.7132 12.7589
rfingers 7.12502
rthumb 8.54712 -17.0481
lclavicle -4.57205e-015 1.43125e-014
lhumerus -35.1967 1.32103 82.3007
lradius 42.9716
lwrist 3.27148
lhand -21.9529 20.5297
lfingers 7.12502
lthumb 4.45422 50.4629
rfemur -15.8808 5.53552 19.5295
rtibia 26.3296
rfoot -22.5598 -12.6045
rtoes -1.19298
lfemur -16.8698 -1.41498 -17.6433
ltibia 25.0279
lfoot -25.1656 9.18915
ltoes -10.0411
310
root 0.437784 17.7505 -18.8168 2.79265 1.24404 0.146959
lowerback 12.0164 0.499278 0.802503
upperback -0.0576922 1.01769 3.43015
thorax -6.86795 0.532682 2.9946
lowerneck -16.6205 -4.94171 -8.95552
upperneck 10.1704 -5.59275 6.90282
head 6.24612 -2.52226 3.08232
rclavicle 3.37934e-015 6.36111e-015
rhumerus -22.8409 0.720807 -74.616
rradius 46.9516
rwrist -2.15136
rhand -17.3515 12.5761
rfingers 7.12502
rthumb 8.89613 -17.2164
lclavicle 3.37934e-015 6.36111e-015
lhumerus -34.8983 1.44193 82.1787
lradius 42.6162
lwrist 3.09292
lhand -22.0964 19.8362
lfingers 7.12502
lthumb 4.31567 49.7722
rfemur -15.4263 5.49626 19.77
rtibia 25.954
rfoot -22.4774 -12.7697
rtoes -0.997768
lfemur -16.5481 -1.74438 -17.4415
ltibia 24.7616
lfoot -25.2369 9.15998
ltoes -10.2896
